<?xml version="1.0" encoding="UTF-8" standalone="no"?>
<!-- Created with Inkscape (http://www.inkscape.org/) -->
<svg
   xmlns:dc="http://purl.org/dc/elements/1.1/"
   xmlns:cc="http://creativecommons.org/ns#"
   xmlns:rdf="http://www.w3.org/1999/02/22-rdf-syntax-ns#"
   xmlns:svg="http://www.w3.org/2000/svg"
   xmlns="http://www.w3.org/2000/svg"
   xmlns:sodipodi="http://sodipodi.sourceforge.net/DTD/sodipodi-0.dtd"
   xmlns:inkscape="http://www.inkscape.org/namespaces/inkscape"
   width="100"
   height="100"
   id="svg2"
   sodipodi:version="0.32"
   inkscape:version="0.46"
   version="1.0"
   sodipodi:docbase="/home/mirco/src/svg-test"
   sodipodi:docname="clock-hour-hand.svg"
   inkscape:output_extension="org.inkscape.output.svg.inkscape">
  <defs
     id="defs4">
    <inkscape:perspective
       sodipodi:type="inkscape:persp3d"
       inkscape:vp_x="0 : 50 : 1"
       inkscape:vp_y="0 : 1000 : 0"
       inkscape:vp_z="100 : 50 : 1"
       inkscape:persp3d-origin="50 : 33.333333 : 1"
       id="perspective2518" />
    <linearGradient
       id="linearGradient2202">
      <stop
         style="stop-color:#a5adad;stop-opacity:1;"
         offset="0"
         id="stop2204" />
      <stop
         style="stop-color:#e8f4ed;stop-opacity:1;"
         offset="1"
         id="stop2206" />
    </linearGradient>
  </defs>
  <sodipodi:namedview
     id="base"
     pagecolor="#ffffff"
     bordercolor="#666666"
     borderopacity="1.0"
     inkscape:pageopacity="0.0"
     inkscape:pageshadow="2"
     inkscape:zoom="32"
     inkscape:cx="2.8564283"
     inkscape:cy="100.07255"
     inkscape:document-units="px"
     inkscape:current-layer="layer1"
     showguides="true"
     inkscape:guide-bbox="true"
     inkscape:window-width="1280"
     inkscape:window-height="995"
     inkscape:window-x="0"
     inkscape:window-y="1"
     showgrid="false">
    <sodipodi:guide
       orientation="horizontal"
       position="50"
       id="guide1307" />
    <sodipodi:guide
       orientation="vertical"
       position="50"
       id="guide1309" />
    <sodipodi:guide
       orientation="horizontal"
       position="100"
       id="guide1311" />
    <sodipodi:guide
       orientation="vertical"
       position="0"
       id="guide1313" />
    <sodipodi:guide
       orientation="vertical"
       position="100"
       id="guide1315" />
    <sodipodi:guide
       orientation="horizontal"
       position="0"
       id="guide1317" />
    <sodipodi:guide
       orientation="horizontal"
       position="90.060241"
       id="guide1319" />
    <sodipodi:guide
       orientation="vertical"
       position="10.040161"
       id="guide1321" />
    <sodipodi:guide
       orientation="vertical"
       position="90.060241"
       id="guide1323" />
    <sodipodi:guide
       orientation="horizontal"
       position="10.040161"
       id="guide1325" />
    <sodipodi:guide
       orientation="vertical"
       position="-10.040161"
       id="guide4953" />
    <sodipodi:guide
       orientation="vertical"
       position="40.060241"
       id="guide4955" />
    <sodipodi:guide
       orientation="vertical"
       position="30.02008"
       id="guide4957" />
  </sodipodi:namedview>
  <metadata
     id="metadata7">
    <rdf:RDF>
      <cc:Work
         rdf:about="">
        <dc:format>image/svg+xml</dc:format>
        <dc:type
           rdf:resource="http://purl.org/dc/dcmitype/StillImage" />
      </cc:Work>
    </rdf:RDF>
  </metadata>
  <g
     inkscape:label="Ebene 1"
     inkscape:groupmode="layer"
     id="layer1">
    <path
       style="fill:none;fill-opacity:0.75;fill-rule:evenodd;stroke:#282d30;stroke-width:1.25;stroke-linecap:square;stroke-linejoin:miter;stroke-opacity:1;stroke-miterlimit:4;stroke-dasharray:none"
       d="M -5.3327858,0 L 20.448417,0"
       id="path4959"
       sodipodi:nodetypes="cc" />
    <path
       sodipodi:type="arc"
       style="opacity:1;fill:#282d30;fill-opacity:1;fill-rule:nonzero;stroke:none;stroke-width:2.5;stroke-linecap:square;stroke-linejoin:round;stroke-miterlimit:4;stroke-dasharray:none;stroke-dashoffset:0;stroke-opacity:1"
       id="path1329"
       sodipodi:cx="-2.196775"
       sodipodi:cy="5.2248487"
       sodipodi:rx="1.2553"
       sodipodi:ry="1.2553"
       d="M -0.94147491 5.2248487 A 1.2553 1.2553 0 1 1  -3.452075,5.2248487 A 1.2553 1.2553 0 1 1  -0.94147491 5.2248487 z"
       transform="translate(2.195354,-5.226252)" />
    <path
       style="fill:#666666"
       d="M -0.064178894,1.2494171 C -0.45316971,1.232975 -0.81562479,1.0285504 -1.0397877,0.69917363 C -1.0580082,0.67240098 -1.0758292,0.64478336 -1.0793899,0.63780094 L -1.0858638,0.62510562 L -2.4490448,0.62510562 L -3.8122258,0.62510562 L -3.8122258,0.000105625 L -3.8122258,-0.62489438 L -2.4495716,-0.62489438 L -1.0869173,-0.62489438 L -1.0822944,-0.63504063 C -1.0734011,-0.65455914 -1.0115211,-0.74440938 -0.9776371,-0.78700375 C -0.93381448,-0.84209168 -0.84192307,-0.93398301 -0.78683514,-0.9778057 C -0.62152565,-1.1093101 -0.42888296,-1.1976042 -0.22824139,-1.2338264 C -0.13934749,-1.2498745 -0.1133555,-1.2518539 0.0041804812,-1.251526 C 0.12877892,-1.2511784 0.171759,-1.2468208 0.27215118,-1.2243579 C 0.54561993,-1.1631688 0.79063165,-1.0114854 0.97011876,-0.79225543 C 1.0012359,-0.75424797 1.0564102,-0.67573625 1.0774379,-0.63954281 L 1.0859481,-0.62489438 L 2.4415488,-0.62489438 L 3.7971492,-0.62489438 L 3.7971492,0.000105625 L 3.7971492,0.62510562 L 2.4407039,0.6251259 L 1.0842586,0.62514617 L 1.061516,0.66217043 C 0.96328322,0.82208645 0.80940587,0.97318008 0.64285236,1.0732591 C 0.42993634,1.2011968 0.19280197,1.2602791 -0.064178894,1.249417 L -0.064178894,1.2494171 z"
       id="path2520" />
    <path
       style="fill:#666666"
       d="M -0.055622995,1.2488572 C -0.060328698,1.2470958 -0.074725769,1.2461699 -0.087616394,1.2467995 C -0.10050702,1.2474291 -0.11320311,1.2465989 -0.11582991,1.2449545 C -0.11845675,1.2433101 -0.12724581,1.2419556 -0.13536116,1.2419445 C -0.15825343,1.2419131 -0.17780764,1.2398409 -0.18248409,1.2369507 C -0.18482507,1.2355038 -0.19168358,1.2344872 -0.19772526,1.2346914 C -0.20376694,1.2348957 -0.21641284,1.233113 -0.22582725,1.2307302 C -0.23524171,1.2283473 -0.24386897,1.2273224 -0.24499909,1.2284525 C -0.24612913,1.2295827 -0.24904917,1.2288512 -0.25148796,1.2268272 C -0.25392678,1.2248031 -0.26206311,1.2225172 -0.26956885,1.2217472 C -0.27707456,1.2209771 -0.28490889,1.2193396 -0.2869785,1.218108 C -0.29067971,1.2159056 -0.31246128,1.2105423 -0.32394452,1.2090061 C -0.32716718,1.2085751 -0.33244061,1.2071197 -0.33566327,1.2057722 C -0.33888593,1.2044248 -0.34503827,1.2026869 -0.34933514,1.2019104 C -0.35363202,1.201134 -0.35978436,1.1994073 -0.36300702,1.1980735 C -0.37988956,1.1910858 -0.45953139,1.1635154 -0.46456952,1.1629145 C -0.46779218,1.1625302 -0.47146596,1.1608092 -0.4727335,1.1590903 C -0.47400104,1.1573714 -0.47883499,1.1556789 -0.48347569,1.1553293 C -0.48811639,1.1549796 -0.49191327,1.1534554 -0.49191327,1.1519418 C -0.49191327,1.1486289 -0.52854405,1.1342136 -0.53014167,1.1368979 C -0.53075706,1.137932 -0.53251499,1.136817 -0.53404792,1.13442 C -0.53805218,1.1281588 -0.56861077,1.1132621 -0.57150772,1.116159 C -0.57284803,1.1174992 -0.57394452,1.1164413 -0.57394452,1.113808 C -0.57394452,1.1111746 -0.57570233,1.1101066 -0.57785077,1.1114344 C -0.57999921,1.1127622 -0.58175702,1.1118833 -0.58175702,1.1094812 C -0.58175702,1.1070792 -0.58351483,1.1062003 -0.58566327,1.1075281 C -0.58781171,1.1088559 -0.58956952,1.107977 -0.58956952,1.105575 C -0.58956952,1.103173 -0.59132733,1.1022941 -0.59347577,1.1036219 C -0.59562421,1.1049497 -0.59738202,1.1045535 -0.59738202,1.1027415 C -0.59738202,1.0980464 -0.61922089,1.0857472 -0.62222452,1.0887509 C -0.62360022,1.0901266 -0.62472577,1.0893683 -0.62472577,1.087066 C -0.62472577,1.0847635 -0.63307538,1.0780727 -0.64328046,1.0721973 C -0.65348553,1.0663218 -0.677216,1.0511622 -0.69601483,1.0385091 C -0.71481366,1.0258561 -0.73019452,1.0167696 -0.73019452,1.0183171 C -0.73019452,1.0198645 -0.73239178,1.0183235 -0.73507733,1.0148925 C -0.73776288,1.0114615 -0.75835428,0.99411293 -0.78083604,0.97634012 C -0.85850444,0.91493973 -0.95722823,0.81177383 -1.0150843,0.73155156 C -1.0263179,0.71597539 -1.0368326,0.70323125 -1.0384507,0.70323125 C -1.0400686,0.70323125 -1.0414096,0.70103398 -1.0414305,0.69834844 C -1.0414516,0.69566289 -1.0505335,0.67961703 -1.0616128,0.66269098 C -1.0726921,0.64576492 -1.081757,0.6303841 -1.081757,0.62851129 C -1.081757,0.62658184 -1.6734058,0.62510625 -2.4469914,0.62510625 L -3.8122258,0.62510625 L -3.8122258,0.00010625 L -3.8122258,-0.62489375 L -2.449082,-0.62489375 C -1.1219097,-0.62489375 -1.0858351,-0.62508637 -1.0820319,-0.63219266 C -1.0798835,-0.63620699 -1.0792357,-0.64060156 -1.0805924,-0.64195828 C -1.0819491,-0.64331492 -1.0810535,-0.644425 -1.0786021,-0.644425 C -1.0748052,-0.644425 -1.0609826,-0.6659359 -1.0610315,-0.67176875 C -1.0610405,-0.67284297 -1.0582367,-0.67586324 -1.0548009,-0.67848047 C -1.051365,-0.68109766 -1.0503117,-0.68332188 -1.0524601,-0.68342309 C -1.0546086,-0.68352426 -1.0543401,-0.68489855 -1.0518635,-0.68647699 C -1.0475937,-0.68919832 -0.97917979,-0.78114375 -0.98142479,-0.78114375 C -0.98201042,-0.78114375 -0.9727446,-0.792105 -0.96083417,-0.80550207 C -0.93176901,-0.8381952 -0.83214401,-0.94038492 -0.83072249,-0.9389634 C -0.8301005,-0.93834148 -0.81865307,-0.94795488 -0.8052837,-0.9603266 C -0.79191428,-0.97269828 -0.78097577,-0.98222574 -0.78097577,-0.98149863 C -0.78097577,-0.98077148 -0.76779218,-0.99009941 -0.75167889,-1.0022272 C -0.73556561,-1.014355 -0.72238202,-1.0258227 -0.72238202,-1.0277108 C -0.72238202,-1.0295989 -0.72106366,-1.0307152 -0.71945233,-1.0301914 C -0.71499776,-1.0287435 -0.68722577,-1.0468689 -0.68722577,-1.0512241 C -0.68722577,-1.0533241 -0.685576,-1.0540227 -0.6835596,-1.0527765 C -0.68154319,-1.0515303 -0.67808104,-1.0536238 -0.67586589,-1.0574288 C -0.67365077,-1.0612338 -0.67178487,-1.0631086 -0.67171956,-1.0615951 C -0.67165425,-1.0600816 -0.65621991,-1.0677426 -0.63742108,-1.0786194 C -0.61862225,-1.0894963 -0.58390546,-1.108091 -0.56027264,-1.1199411 C -0.53663983,-1.1317912 -0.51642499,-1.1425873 -0.51535077,-1.1439324 C -0.51427655,-1.1452776 -0.51076093,-1.1469061 -0.50753827,-1.1475514 C -0.49691569,-1.1496785 -0.43139241,-1.1773358 -0.43013745,-1.1802221 C -0.42946167,-1.1817767 -0.42638538,-1.1820804 -0.42330151,-1.180897 C -0.4202178,-1.1797137 -0.41769452,-1.1806361 -0.41769452,-1.182947 C -0.41769452,-1.1852579 -0.4150578,-1.1861368 -0.41183514,-1.1849001 C -0.40861249,-1.1836634 -0.40597577,-1.1845423 -0.40597577,-1.1868532 C -0.40597577,-1.1891641 -0.40333905,-1.190043 -0.40011639,-1.1888064 C -0.39689374,-1.1875697 -0.39425702,-1.1884486 -0.39425702,-1.1907595 C -0.39425702,-1.1930704 -0.3916203,-1.1939493 -0.38839764,-1.1927126 C -0.38517499,-1.1914759 -0.38253827,-1.1923548 -0.38253827,-1.1946657 C -0.38253827,-1.1969766 -0.37990155,-1.1978555 -0.37667889,-1.1966189 C -0.37345624,-1.1953822 -0.37081604,-1.1958768 -0.37081175,-1.197718 C -0.37080757,-1.1995592 -0.36510702,-1.2014678 -0.35814405,-1.2019594 C -0.35118112,-1.202451 -0.3448821,-1.2046592 -0.34414632,-1.2068665 C -0.34341061,-1.2090739 -0.34150862,-1.2100766 -0.33991991,-1.2090947 C -0.3371851,-1.2074045 -0.29745249,-1.2162674 -0.28488202,-1.2213715 C -0.28165936,-1.2226801 -0.27594647,-1.22337 -0.27218671,-1.2229048 C -0.26842694,-1.2224396 -0.26535077,-1.2236835 -0.26535077,-1.225669 C -0.26535077,-1.2276546 -0.26095624,-1.2284391 -0.25558514,-1.2274123 C -0.25021405,-1.2263855 -0.24581952,-1.2270688 -0.24581952,-1.2289305 C -0.24581952,-1.2307923 -0.24186444,-1.2325716 -0.23703046,-1.2328846 C -0.22291171,-1.2337985 -0.19405393,-1.2378268 -0.18136639,-1.2406548 C -0.16908089,-1.2433932 -0.16577135,-1.2437796 -0.12472577,-1.2472685 C -0.088900027,-1.2503137 0.097013294,-1.2509218 0.10172579,-1.2480092 C 0.10387306,-1.246682 0.11400509,-1.2457274 0.12424142,-1.2458877 C 0.14499767,-1.246213 0.18133009,-1.2421334 0.21316486,-1.235903 C 0.21961017,-1.2346416 0.22839923,-1.233105 0.23269611,-1.2324883 C 0.23699298,-1.2318716 0.24366056,-1.230045 0.2475129,-1.2284291 C 0.25136525,-1.2268132 0.25559806,-1.2265719 0.25691915,-1.2278929 C 0.25824064,-1.2292139 0.26124064,-1.2288059 0.26358673,-1.2269861 C 0.26976251,-1.2221959 0.30475939,-1.2141514 0.30873478,-1.2166083 C 0.31058947,-1.2177546 0.3126965,-1.2169539 0.3134172,-1.2148291 C 0.3141379,-1.2127042 0.32000079,-1.2102923 0.32644611,-1.2094692 C 0.33289142,-1.2086462 0.3431465,-1.2059666 0.34923478,-1.2035146 C 0.35532345,-1.2010627 0.36191525,-1.2000518 0.36388322,-1.2012682 C 0.36585157,-1.2024846 0.36746173,-1.201838 0.36746173,-1.1998313 C 0.36746173,-1.1962643 0.38804376,-1.1897093 0.39773517,-1.1901898 C 0.40042072,-1.190323 0.40261798,-1.1886814 0.40261798,-1.1865418 C 0.40261798,-1.1844023 0.4052547,-1.1836634 0.40847736,-1.1849001 C 0.41170001,-1.1861368 0.41433673,-1.1852579 0.41433673,-1.182947 C 0.41433673,-1.1806361 0.41685978,-1.1797136 0.41994376,-1.180897 C 0.42302775,-1.1820804 0.42610392,-1.1816505 0.4267797,-1.1799417 C 0.42824532,-1.1762366 0.47293048,-1.1591909 0.47293048,-1.162337 C 0.47293048,-1.1635345 0.47569259,-1.161752 0.47906876,-1.1583759 C 0.48455197,-1.1528927 0.49279493,-1.1504398 0.50125079,-1.1517749 C 0.50286212,-1.1520293 0.50418048,-1.1506251 0.50418048,-1.1486543 C 0.50418048,-1.1453024 0.53267189,-1.1326504 0.54128986,-1.1321755 C 0.54343829,-1.1320571 0.54607501,-1.1307089 0.54714923,-1.1291795 C 0.55004923,-1.125051 0.60964923,-1.0930753 0.60964923,-1.095648 C 0.60964923,-1.0968616 0.6134965,-1.0942702 0.61819845,-1.0898897 C 0.6229004,-1.0855091 0.62817384,-1.081925 0.6299172,-1.081925 C 0.63166056,-1.081925 0.63396564,-1.081925 0.63503986,-1.081925 C 0.63611407,-1.081925 0.64057267,-1.0783453 0.64494806,-1.07397 C 0.64932306,-1.0695948 0.65441251,-1.066948 0.65625743,-1.0680882 C 0.65810275,-1.0692284 0.66066251,-1.0674234 0.66194689,-1.0640768 C 0.66323087,-1.0607303 0.66605197,-1.0590864 0.66821525,-1.0604236 C 0.67037892,-1.0617607 0.67214923,-1.0611765 0.67214923,-1.0591252 C 0.67214923,-1.0547662 0.71160665,-1.0287261 0.71602814,-1.0301672 C 0.71767579,-1.0307043 0.71902423,-1.0294704 0.71902423,-1.0274252 C 0.71902423,-1.0230387 0.75479181,-0.99761699 0.75906329,-0.9989675 C 0.76067462,-0.99947695 0.76199298,-0.99838703 0.76199298,-0.99654543 C 0.76199298,-0.99377969 0.82001329,-0.94377887 0.82368751,-0.94337824 C 0.82684532,-0.94303391 0.93960236,-0.82963191 0.93884298,-0.82756426 C 0.93835665,-0.82624008 0.94157267,-0.8218857 0.94599025,-0.81788789 C 0.95676564,-0.80813625 1.017868,-0.72756547 1.0412496,-0.69227656 C 1.0515703,-0.67670039 1.0615141,-0.66395625 1.0633473,-0.66395625 C 1.0651805,-0.66395625 1.066302,-0.66263789 1.0658395,-0.66102656 C 1.065377,-0.65941523 1.069332,-0.65063973 1.0746285,-0.64152539 L 1.0842586,-0.62495383 L 2.4407039,-0.62492379 L 3.7971492,-0.62489375 L 3.7971492,0.00010625 L 3.7971492,0.62510625 L 2.442657,0.62516609 C 1.6976863,0.62519895 1.0862559,0.6265173 1.0839227,0.62809574 C 1.0770289,0.63275949 1.0514156,0.67494543 1.0539434,0.67747316 C 1.0552195,0.67874945 1.0544465,0.67979375 1.0522258,0.67979375 C 1.0500047,0.67979375 1.0435344,0.686825 1.0378473,0.69541875 C 1.0321602,0.7040125 1.0283117,0.71104375 1.0292953,0.71104375 C 1.0302789,0.71104375 1.0259567,0.7166573 1.0196902,0.72351832 C 1.0134234,0.73037937 1.0090531,0.73674992 1.0099785,0.73767512 C 1.0109039,0.73860035 1.0077805,0.74259629 1.0030379,0.74655496 C 0.99829532,0.75051363 0.99606915,0.75381105 0.99809103,0.75388254 C 1.0001137,0.75395398 0.99899962,0.75620977 0.99561681,0.75889531 C 0.992234,0.76158086 0.97369025,0.78223516 0.954409,0.80479375 C 0.89123322,0.87870715 0.819334,0.94648516 0.74539142,1.0018308 C 0.72874103,1.0142936 0.71511798,1.0260352 0.71511798,1.0279233 C 0.71511798,1.0298114 0.71379962,1.0309277 0.71218829,1.0304039 C 0.70787032,1.0290004 0.67996173,1.0470155 0.67996173,1.0512061 C 0.67996173,1.0531794 0.67864337,1.0543812 0.67703204,1.053877 C 0.67209884,1.0523331 0.62918048,1.0785212 0.62918048,1.0830752 C 0.62918048,1.0854241 0.62810587,1.0862712 0.62679259,1.0849578 C 0.624159,1.0823244 0.53426681,1.1286366 0.5321672,1.1337086 C 0.5314465,1.1354494 0.52924923,1.1358801 0.52728439,1.1346657 C 0.52531954,1.1334513 0.52371173,1.134423 0.52371173,1.136825 C 0.52371173,1.139227 0.52207462,1.1401805 0.52007384,1.1389439 C 0.51622697,1.1365665 0.48855548,1.1483297 0.48855548,1.1523422 C 0.48855548,1.1536355 0.48462657,1.1549897 0.47982423,1.1553514 C 0.47502228,1.1557132 0.47051407,1.1577463 0.46980626,1.1598695 C 0.46909845,1.1619926 0.46622306,1.1628486 0.46341603,1.1617715 C 0.46060939,1.1606945 0.45565861,1.1624673 0.45241486,1.1657112 C 0.44917072,1.168955 0.44568361,1.1707762 0.44466564,1.1697581 C 0.44231798,1.1674105 0.39718048,1.1843595 0.3955297,1.1882084 C 0.39485392,1.1897843 0.39177775,1.1901054 0.38869376,1.188922 C 0.38560978,1.1877386 0.38308673,1.18882 0.38308673,1.1913251 C 0.38308673,1.1938302 0.38158165,1.1949495 0.37974181,1.1938125 C 0.37790197,1.1926755 0.35882228,1.1967685 0.33734259,1.202908 C 0.31586251,1.2090476 0.29100079,1.2153021 0.28209376,1.2168069 C 0.27318673,1.2183118 0.26589923,1.2209025 0.26589923,1.2225642 C 0.26589923,1.2242259 0.2615047,1.2247453 0.25613361,1.2237186 C 0.25076251,1.2226918 0.24635548,1.223375 0.24633986,1.2252368 C 0.24632462,1.2270986 0.23709611,1.2290751 0.22583204,1.2296291 C 0.21456837,1.230183 0.20488517,1.2320241 0.20431407,1.2337203 C 0.20374259,1.2354166 0.19715118,1.2360893 0.18966564,1.2352154 C 0.1821797,1.2343416 0.17603868,1.2351372 0.17601837,1.2369836 C 0.17599806,1.2388301 0.16149611,1.2408371 0.14379181,1.2414439 C 0.12608751,1.2420508 0.11116329,1.2438085 0.11062657,1.2453502 C 0.11008947,1.2468919 0.094708606,1.2475333 0.076446731,1.2467757 C 0.058184583,1.246018 0.043242981,1.246897 0.043242981,1.2487288 C 0.043242981,1.2529933 -0.044268308,1.2531068 -0.055622917,1.2488571 L -0.055622995,1.2488572 z"
       id="path2496" />
    <path
       style="fill:#666666"
       d="M 3.8126783,-0.0069250001 L 3.8126783,-0.6163 L 12.437678,-0.6163 L 21.062678,-0.6163 L 21.062678,-0.0069250001 L 21.062678,0.60245 L 12.437678,0.60245 L 3.8126783,0.60245 L 3.8126783,-0.0069250001 z"
       id="path2498" />
    <path
       style="fill:#666666"
       d="M -5.9373217,-0.0069250001 L -5.9373217,-0.6163 L -4.8748217,-0.6163 L -3.8123217,-0.6163 L -3.8123217,-0.0069250001 L -3.8123217,0.60245 L -4.8748217,0.60245 L -5.9373217,0.60245 L -5.9373217,-0.0069250001 z"
       id="path2500" />
  </g>
</svg>
