<?xml version="1.0" encoding="UTF-8" standalone="no"?>
<!-- Created with Inkscape (http://www.inkscape.org/) -->
<svg
   xmlns:dc="http://purl.org/dc/elements/1.1/"
   xmlns:cc="http://creativecommons.org/ns#"
   xmlns:rdf="http://www.w3.org/1999/02/22-rdf-syntax-ns#"
   xmlns:svg="http://www.w3.org/2000/svg"
   xmlns="http://www.w3.org/2000/svg"
   xmlns:sodipodi="http://sodipodi.sourceforge.net/DTD/sodipodi-0.dtd"
   xmlns:inkscape="http://www.inkscape.org/namespaces/inkscape"
   width="100"
   height="100"
   id="svg2"
   sodipodi:version="0.32"
   inkscape:version="0.46"
   version="1.0"
   sodipodi:docbase="/home/dt/.cairo-clock/themes/ipulse-24"
   sodipodi:docname="clock-marks.svg"
   inkscape:output_extension="org.inkscape.output.svg.inkscape">
  <defs
     id="defs4">
    <marker
       inkscape:stockid="StopS"
       orient="auto"
       refY="0.0"
       refX="0.0"
       id="StopS"
       style="overflow:visible">
      <path
         id="path3425"
         d="M 0.0,5.65 L 0.0,-5.65"
         style="fill:none;fill-opacity:0.75000000;fill-rule:evenodd;stroke:#000000;stroke-width:1.0pt"
         transform="scale(0.2)" />
    </marker>
    <marker
       inkscape:stockid="StopM"
       orient="auto"
       refY="0.0"
       refX="0.0"
       id="StopM"
       style="overflow:visible">
      <path
         id="path3422"
         d="M 0.0,5.65 L 0.0,-5.65"
         style="fill:none;fill-opacity:0.75000000;fill-rule:evenodd;stroke:#000000;stroke-width:1.0pt"
         transform="scale(0.4)" />
    </marker>
    <marker
       inkscape:stockid="StopL"
       orient="auto"
       refY="0.0"
       refX="0.0"
       id="StopL"
       style="overflow:visible">
      <path
         id="path3419"
         d="M 0.0,5.65 L 0.0,-5.65"
         style="fill:none;fill-opacity:0.75000000;fill-rule:evenodd;stroke:#000000;stroke-width:1.0pt"
         transform="scale(0.8)" />
    </marker>
    <marker
       inkscape:stockid="DiamondS"
       orient="auto"
       refY="0.0"
       refX="0.0"
       id="DiamondS"
       style="overflow:visible">
      <path
         id="path3335"
         d="M 0,-7.0710768 L -7.0710894,0 L 0,7.0710589 L 7.0710462,0 L 0,-7.0710768 z "
         style="fill-rule:evenodd;stroke:#000000;stroke-width:1.0pt;marker-start:none"
         transform="scale(0.2)" />
    </marker>
    <marker
       inkscape:stockid="DotS"
       orient="auto"
       refY="0.0"
       refX="0.0"
       id="DotS"
       style="overflow:visible">
      <path
         id="path3317"
         d="M -2.5,-1.0 C -2.5,1.7600000 -4.7400000,4.0 -7.5,4.0 C -10.260000,4.0 -12.5,1.7600000 -12.5,-1.0 C -12.5,-3.7600000 -10.260000,-6.0 -7.5,-6.0 C -4.7400000,-6.0 -2.5,-3.7600000 -2.5,-1.0 z "
         style="fill-rule:evenodd;stroke:#000000;stroke-width:1.0pt;marker-start:none;marker-end:none"
         transform="scale(0.2) translate(7.4, 1)" />
    </marker>
    <marker
       inkscape:stockid="CurveIn"
       orient="auto"
       refY="0.0"
       refX="0.0"
       id="CurveIn"
       style="overflow:visible">
      <path
         id="path3434"
         d="M 4.6254930,-5.0456926 C 1.8654930,-5.0456926 -0.37450702,-2.8056926 -0.37450702,-0.045692580 C -0.37450702,2.7143074 1.8654930,4.9543074 4.6254930,4.9543074"
         style="fill-rule:evenodd;stroke:#000000;stroke-width:1.0pt;marker-start:none;marker-end:none;fill:none"
         transform="scale(0.6)" />
    </marker>
    <marker
       inkscape:stockid="Torso"
       orient="auto"
       refY="0.0"
       refX="0.0"
       id="Torso"
       style="overflow:visible">
      <g
         id="g3462"
         transform="scale(0.7)">
        <path
           id="path3464"
           d="M -4.7792281,-3.2395420 C -2.4288541,-2.8736027 0.52103922,-1.3019943 0.25792722,0.38794346 C -0.0051877922,2.0778819 -2.2126741,2.6176539 -4.5630471,2.2517169 C -6.9134221,1.8857769 -8.5210350,0.75201414 -8.2579220,-0.93792336 C -7.9948090,-2.6278615 -7.1296041,-3.6054813 -4.7792281,-3.2395420 z "
           style="fill:none;fill-opacity:0.75000000;fill-rule:evenodd;stroke:#000000;stroke-width:1.2500000;marker-start:none;marker-mid:none;marker-end:none" />
        <path
           id="path3466"
           d="M 4.4598789,0.088665736 C -2.5564571,-4.3783320 5.2248769,-3.9061806 -0.84829578,-8.7197331"
           style="fill:none;fill-opacity:0.75000000;fill-rule:evenodd;stroke:#000000;stroke-width:1.0000000pt;marker-end:none" />
        <path
           id="path3468"
           d="M 4.9298719,0.057520736 C -1.3872731,1.7494689 1.8027579,5.4782079 -4.9448731,7.5462725"
           style="fill:none;fill-opacity:0.75000000;fill-rule:evenodd;stroke:#000000;stroke-width:1.0000000pt;marker-start:none;marker-end:none" />
        <rect
           id="rect3470"
           transform="matrix(0.527536,-0.849533,0.887668,0.460484,0,0)"
           y="-1.7408575"
           x="-10.391706"
           height="2.7608147"
           width="2.6366582"
           style="fill-rule:evenodd;stroke-width:1.0000000pt;marker-end:none" />
        <rect
           id="rect3472"
           transform="matrix(0.671205,-0.741272,0.790802,0.612072,0,0)"
           y="-7.9629307"
           x="4.9587269"
           height="2.8614161"
           width="2.7327356"
           style="fill-rule:evenodd;stroke-width:1.0000000pt;marker-end:none" />
        <path
           id="path3474"
           transform="matrix(0,-1.109517,1.109517,0,25.96648,19.71619)"
           d="M 16.779951 -28.685045 A 0.60731727 0.60731727 0 1 0 15.565317,-28.685045 A 0.60731727 0.60731727 0 1 0 16.779951 -28.685045 z"
           sodipodi:ry="0.60731727"
           sodipodi:rx="0.60731727"
           sodipodi:cy="-28.685045"
           sodipodi:cx="16.172634"
           style="fill:#ff0000;fill-opacity:0.75000000;fill-rule:evenodd;stroke:#000000;stroke-width:1.0000000pt;marker-start:none;marker-end:none"
           sodipodi:type="arc" />
        <path
           id="path3476"
           transform="matrix(0,-1.109517,1.109517,0,26.82450,16.99126)"
           d="M 16.779951 -28.685045 A 0.60731727 0.60731727 0 1 0 15.565317,-28.685045 A 0.60731727 0.60731727 0 1 0 16.779951 -28.685045 z"
           sodipodi:ry="0.60731727"
           sodipodi:rx="0.60731727"
           sodipodi:cy="-28.685045"
           sodipodi:cx="16.172634"
           style="fill:#ff0000;fill-opacity:0.75000000;fill-rule:evenodd;stroke:#000000;stroke-width:1.0000000pt;marker-start:none;marker-end:none"
           sodipodi:type="arc" />
      </g>
    </marker>
    <marker
       inkscape:stockid="Legs"
       orient="auto"
       refY="0.0"
       refX="0.0"
       id="Legs"
       style="overflow:visible">
      <g
         id="g3449"
         transform="scale(-0.7)">
        <g
           id="g3451"
           transform="matrix(0,-1.000000,-1.000000,0,20.70862,21.31391)">
          <path
             id="path3453"
             d="M 21.221250,20.675360 C 14.311099,25.396517 18.766725,27.282204 15.380179,34.118595"
             style="fill:none;fill-opacity:0.75000000;fill-rule:evenodd;stroke:#000000;stroke-width:1.0000000pt;marker-start:none;marker-end:none" />
          <path
             id="path3455"
             d="M 21.398110,20.548120 C 20.037601,28.895644 24.934182,29.318060 25.903151,34.373078"
             style="fill:none;fill-opacity:0.75000000;fill-rule:evenodd;stroke:#000000;stroke-width:1.0000000pt;marker-start:none;marker-end:none" />
        </g>
        <path
           id="path3457"
           d="M -14.090070,-6.7318716 L -15.012238,-2.6884886 L -11.049487,-3.9115586 L -14.090070,-6.7318716 z "
           style="fill:#030300;fill-rule:evenodd;stroke-width:1.0000000pt;marker-end:none" />
        <path
           id="path3459"
           d="M -15.215679,4.5567534 L -13.341552,8.2563664 L -11.074678,4.7835114 L -15.215679,4.5567534 z "
           style="fill:#030300;fill-rule:evenodd;stroke-width:1.0000000pt;marker-end:none" />
      </g>
    </marker>
    <marker
       inkscape:stockid="Arrow2Sstart"
       orient="auto"
       refY="0.0"
       refX="0.0"
       id="Arrow2Sstart"
       style="overflow:visible">
      <path
         id="path3279"
         style="font-size:12.0;fill-rule:evenodd;stroke-width:0.62500000;stroke-linejoin:round"
         d="M 8.7185878,4.0337352 L -2.2072895,0.016013256 L 8.7185884,-4.0017078 C 6.9730900,-1.6296469 6.9831476,1.6157441 8.7185878,4.0337352 z "
         transform="scale(0.3) translate(-2.3,0)" />
    </marker>
    <marker
       inkscape:stockid="EmptyDiamondS"
       orient="auto"
       refY="0.0"
       refX="0.0"
       id="EmptyDiamondS"
       style="overflow:visible">
      <path
         id="path3362"
         d="M 0,-7.0710768 L -7.0710894,0 L 0,7.0710589 L 7.0710462,0 L 0,-7.0710768 z "
         style="fill-rule:evenodd;fill:#FFFFFF;stroke:#000000;stroke-width:1.0pt;marker-start:none"
         transform="scale(0.2)" />
    </marker>
    <marker
       inkscape:stockid="SquareS"
       orient="auto"
       refY="0.0"
       refX="0.0"
       id="SquareS"
       style="overflow:visible">
      <path
         id="path3326"
         d="M -5.0,-5.0 L -5.0,5.0 L 5.0,5.0 L 5.0,-5.0 L -5.0,-5.0 z "
         style="fill-rule:evenodd;stroke:#000000;stroke-width:1.0pt;marker-start:none"
         transform="scale(0.2)" />
    </marker>
    <marker
       inkscape:stockid="DotL"
       orient="auto"
       refY="0.0"
       refX="0.0"
       id="DotL"
       style="overflow:visible">
      <path
         id="path3311"
         d="M -2.5,-1.0 C -2.5,1.7600000 -4.7400000,4.0 -7.5,4.0 C -10.260000,4.0 -12.5,1.7600000 -12.5,-1.0 C -12.5,-3.7600000 -10.260000,-6.0 -7.5,-6.0 C -4.7400000,-6.0 -2.5,-3.7600000 -2.5,-1.0 z "
         style="fill-rule:evenodd;stroke:#000000;stroke-width:1.0pt;marker-start:none;marker-end:none"
         transform="scale(0.8) translate(7.4, 1)" />
    </marker>
    <marker
       inkscape:stockid="Tail"
       orient="auto"
       refY="0.0"
       refX="0.0"
       id="Tail"
       style="overflow:visible">
      <g
         id="g3285"
         transform="scale(-1.2)">
        <path
           id="path3287"
           d="M -3.8048674,-3.9585227 L 0.54352094,0"
           style="fill:none;fill-rule:evenodd;stroke:#000000;stroke-width:0.8;marker-start:none;marker-end:none;stroke-linecap:round" />
        <path
           id="path3289"
           d="M -1.2866832,-3.9585227 L 3.0617053,0"
           style="fill:none;fill-rule:evenodd;stroke:#000000;stroke-width:0.8;marker-start:none;marker-end:none;stroke-linecap:round" />
        <path
           id="path3291"
           d="M 1.3053582,-3.9585227 L 5.6537466,0"
           style="fill:none;fill-rule:evenodd;stroke:#000000;stroke-width:0.8;marker-start:none;marker-end:none;stroke-linecap:round" />
        <path
           id="path3293"
           d="M -3.8048674,4.1775838 L 0.54352094,0.21974226"
           style="fill:none;fill-rule:evenodd;stroke:#000000;stroke-width:0.8;marker-start:none;marker-end:none;stroke-linecap:round" />
        <path
           id="path3295"
           d="M -1.2866832,4.1775838 L 3.0617053,0.21974226"
           style="fill:none;fill-rule:evenodd;stroke:#000000;stroke-width:0.8;marker-start:none;marker-end:none;stroke-linecap:round" />
        <path
           id="path3297"
           d="M 1.3053582,4.1775838 L 5.6537466,0.21974226"
           style="fill:none;fill-rule:evenodd;stroke:#000000;stroke-width:0.8;marker-start:none;marker-end:none;stroke-linecap:round" />
      </g>
    </marker>
    <marker
       inkscape:stockid="Arrow1Lstart"
       orient="auto"
       refY="0.0"
       refX="0.0"
       id="Arrow1Lstart"
       style="overflow:visible">
      <path
         id="path3249"
         d="M 0.0,0.0 L 5.0,-5.0 L -12.5,0.0 L 5.0,5.0 L 0.0,0.0 z "
         style="fill-rule:evenodd;stroke:#000000;stroke-width:1.0pt;marker-start:none"
         transform="scale(0.8) translate(12.5,0)" />
    </marker>
    <inkscape:perspective
       sodipodi:type="inkscape:persp3d"
       inkscape:vp_x="0 : 50 : 1"
       inkscape:vp_y="0 : 1000 : 0"
       inkscape:vp_z="100 : 50 : 1"
       inkscape:persp3d-origin="50 : 33.333333 : 1"
       id="perspective77" />
    <linearGradient
       id="linearGradient5989">
      <stop
         style="stop-color:#ffffff;stop-opacity:1;"
         offset="0"
         id="stop5991" />
      <stop
         id="stop2316"
         offset="0.56465238"
         style="stop-color:#bcbcbc;stop-opacity:1;" />
      <stop
         style="stop-color:#838383;stop-opacity:1;"
         offset="0.83716005"
         id="stop2318" />
      <stop
         style="stop-color:#3a3a3a;stop-opacity:1;"
         offset="1"
         id="stop5993" />
    </linearGradient>
    <linearGradient
       id="linearGradient3287">
      <stop
         style="stop-color:#ffffff;stop-opacity:1;"
         offset="0"
         id="stop3289" />
      <stop
         style="stop-color:#7f7f7f;stop-opacity:1;"
         offset="1"
         id="stop3291" />
    </linearGradient>
    <linearGradient
       id="linearGradient2202">
      <stop
         style="stop-color:#a5adad;stop-opacity:1;"
         offset="0"
         id="stop2204" />
      <stop
         style="stop-color:#e8f4ed;stop-opacity:1;"
         offset="1"
         id="stop2206" />
    </linearGradient>
    <linearGradient
       id="linearGradient1529">
      <stop
         id="stop1531"
         offset="0"
         style="stop-color:#a5adad;stop-opacity:1;" />
      <stop
         id="stop1533"
         offset="1"
         style="stop-color:#e8f4ed;stop-opacity:1;" />
    </linearGradient>
  </defs>
  <sodipodi:namedview
     id="base"
     pagecolor="#ffffff"
     bordercolor="#666666"
     borderopacity="1.0"
     inkscape:pageopacity="0.0"
     inkscape:pageshadow="2"
     inkscape:zoom="7.2178279"
     inkscape:cx="31.364908"
     inkscape:cy="52.760091"
     inkscape:document-units="px"
     inkscape:current-layer="layer3"
     showguides="true"
     inkscape:guide-bbox="true"
     inkscape:window-width="1598"
     inkscape:window-height="1065"
     inkscape:window-x="0"
     inkscape:window-y="33"
     guidetolerance="1px"
     inkscape:guide-points="true"
     showgrid="false">
    <sodipodi:guide
       orientation="horizontal"
       position="50.05363"
       id="guide1307" />
    <sodipodi:guide
       orientation="vertical"
       position="50.015047,49.460863"
       id="guide1309" />
    <sodipodi:guide
       orientation="horizontal"
       position="100"
       id="guide1311" />
    <sodipodi:guide
       orientation="vertical"
       position="0"
       id="guide1313" />
    <sodipodi:guide
       orientation="vertical"
       position="100"
       id="guide1315" />
    <sodipodi:guide
       orientation="horizontal"
       position="0"
       id="guide1317" />
    <sodipodi:guide
       orientation="horizontal"
       position="90.060241"
       id="guide1319" />
    <sodipodi:guide
       orientation="vertical"
       position="10.040161"
       id="guide1321" />
    <sodipodi:guide
       orientation="vertical"
       position="90.060241"
       id="guide1323" />
    <sodipodi:guide
       orientation="horizontal"
       position="9.8367544"
       id="guide1325" />
    <sodipodi:guide
       orientation="vertical"
       position="204"
       id="guide5901" />
  </sodipodi:namedview>
  <metadata
     id="metadata7">
    <rdf:RDF>
      <cc:Work
         rdf:about="">
        <dc:format>image/svg+xml</dc:format>
        <dc:type
           rdf:resource="http://purl.org/dc/dcmitype/StillImage" />
      </cc:Work>
    </rdf:RDF>
  </metadata>
  <g
     inkscape:label="Ebene 1"
     inkscape:groupmode="layer"
     id="layer1" />
  <g
     inkscape:groupmode="layer"
     id="layer4"
     inkscape:label="Ticks"
     inkscape:r_cx="true"
     inkscape:r_cy="true" />
  <g
     inkscape:groupmode="layer"
     id="layer3"
     inkscape:label="Balls"
     inkscape:r_cx="true"
     inkscape:r_cy="true">
    <g
       id="g2518"
       style="fill:#ffffff">
      <g
         id="g2482"
         style="fill:#ffffff">
        <g
           id="g2472"
           transform="translate(-0.4395522,3.599e-3)"
           style="fill:#ffffff">
          <path
             id="path3367"
             d="M 88.617798,49.94637 L 88.617798,48.992802 L 93.120537,48.992802 L 97.623277,48.992802 L 97.623277,49.947182 L 97.623277,50.901553 L 93.120537,50.900742 L 88.617798,50.89993 L 88.617798,49.94637 z"
             style="opacity:1;fill:#ffffff;fill-opacity:1;fill-rule:evenodd;stroke:#ffffff;stroke-width:0;stroke-linecap:butt;stroke-linejoin:miter;stroke-miterlimit:4;stroke-dasharray:none;stroke-dashoffset:0;stroke-opacity:1" />
          <path
             id="path2470"
             d="M 3.2558274,50.044692 L 3.2558274,49.091 L 7.7585661,49.091 L 12.261306,49.091 L 12.261306,50.045505 L 12.261306,51 L 7.7585661,50.999189 L 3.2558274,50.998377 L 3.2558274,50.044692 z"
             style="opacity:1;fill:#ffffff;fill-opacity:1;fill-rule:evenodd;stroke:#ffffff;stroke-width:0;stroke-linecap:butt;stroke-linejoin:miter;stroke-miterlimit:4;stroke-dasharray:none;stroke-dashoffset:0;stroke-opacity:1" />
        </g>
        <g
           id="g2476"
           transform="matrix(0,1,-1,0,99.996401,-0.4395522)"
           style="fill:#ffffff">
          <path
             id="path2478"
             d="M 88.617798,49.94637 L 88.617798,48.992802 L 93.120537,48.992802 L 97.623277,48.992802 L 97.623277,49.947182 L 97.623277,50.901553 L 93.120537,50.900742 L 88.617798,50.89993 L 88.617798,49.94637 z"
             style="opacity:1;fill:#ffffff;fill-opacity:1;fill-rule:evenodd;stroke:#ffffff;stroke-width:0;stroke-linecap:butt;stroke-linejoin:miter;stroke-miterlimit:4;stroke-dasharray:none;stroke-dashoffset:0;stroke-opacity:1" />
          <path
             id="path2480"
             d="M 3.2558274,50.044692 L 3.2558274,49.091 L 7.7585661,49.091 L 12.261306,49.091 L 12.261306,50.045505 L 12.261306,51 L 7.7585661,50.999189 L 3.2558274,50.998377 L 3.2558274,50.044692 z"
             style="opacity:1;fill:#ffffff;fill-opacity:1;fill-rule:evenodd;stroke:#ffffff;stroke-width:0;stroke-linecap:butt;stroke-linejoin:miter;stroke-miterlimit:4;stroke-dasharray:none;stroke-dashoffset:0;stroke-opacity:1" />
        </g>
      </g>
      <g
         transform="matrix(0.8660254,-0.5,0.5,0.8660254,-18.301208,31.698792)"
         id="g2490"
         style="fill:#ffffff">
        <g
           id="g2492"
           transform="translate(-0.4395522,3.599e-3)"
           style="fill:#ffffff">
          <path
             id="path2494"
             d="M 88.617798,49.94637 L 88.617798,48.992802 L 93.120537,48.992802 L 97.623277,48.992802 L 97.623277,49.947182 L 97.623277,50.901553 L 93.120537,50.900742 L 88.617798,50.89993 L 88.617798,49.94637 z"
             style="opacity:1;fill:#ffffff;fill-opacity:1;fill-rule:evenodd;stroke:#ffffff;stroke-width:0;stroke-linecap:butt;stroke-linejoin:miter;stroke-miterlimit:4;stroke-dasharray:none;stroke-dashoffset:0;stroke-opacity:1" />
          <path
             id="path2496"
             d="M 3.2558274,50.044692 L 3.2558274,49.091 L 7.7585661,49.091 L 12.261306,49.091 L 12.261306,50.045505 L 12.261306,51 L 7.7585661,50.999189 L 3.2558274,50.998377 L 3.2558274,50.044692 z"
             style="opacity:1;fill:#ffffff;fill-opacity:1;fill-rule:evenodd;stroke:#ffffff;stroke-width:0;stroke-linecap:butt;stroke-linejoin:miter;stroke-miterlimit:4;stroke-dasharray:none;stroke-dashoffset:0;stroke-opacity:1" />
        </g>
        <g
           id="g2498"
           transform="matrix(0,1,-1,0,99.996401,-0.4395522)"
           style="fill:#ffffff">
          <path
             id="path2500"
             d="M 88.617798,49.94637 L 88.617798,48.992802 L 93.120537,48.992802 L 97.623277,48.992802 L 97.623277,49.947182 L 97.623277,50.901553 L 93.120537,50.900742 L 88.617798,50.89993 L 88.617798,49.94637 z"
             style="opacity:1;fill:#ffffff;fill-opacity:1;fill-rule:evenodd;stroke:#ffffff;stroke-width:0;stroke-linecap:butt;stroke-linejoin:miter;stroke-miterlimit:4;stroke-dasharray:none;stroke-dashoffset:0;stroke-opacity:1" />
          <path
             id="path2502"
             d="M 3.2558274,50.044692 L 3.2558274,49.091 L 7.7585661,49.091 L 12.261306,49.091 L 12.261306,50.045505 L 12.261306,51 L 7.7585661,50.999189 L 3.2558274,50.998377 L 3.2558274,50.044692 z"
             style="opacity:1;fill:#ffffff;fill-opacity:1;fill-rule:evenodd;stroke:#ffffff;stroke-width:0;stroke-linecap:butt;stroke-linejoin:miter;stroke-miterlimit:4;stroke-dasharray:none;stroke-dashoffset:0;stroke-opacity:1" />
        </g>
      </g>
      <g
         transform="matrix(0.5,-0.8660254,0.8660254,0.5,-18.301676,68.301676)"
         id="g2504"
         style="fill:#ffffff">
        <g
           id="g2506"
           transform="translate(-0.4395522,3.599e-3)"
           style="fill:#ffffff">
          <path
             id="path2508"
             d="M 88.617798,49.94637 L 88.617798,48.992802 L 93.120537,48.992802 L 97.623277,48.992802 L 97.623277,49.947182 L 97.623277,50.901553 L 93.120537,50.900742 L 88.617798,50.89993 L 88.617798,49.94637 z"
             style="opacity:1;fill:#ffffff;fill-opacity:1;fill-rule:evenodd;stroke:#ffffff;stroke-width:0;stroke-linecap:butt;stroke-linejoin:miter;stroke-miterlimit:4;stroke-dasharray:none;stroke-dashoffset:0;stroke-opacity:1" />
          <path
             id="path2510"
             d="M 3.2558274,50.044692 L 3.2558274,49.091 L 7.7585661,49.091 L 12.261306,49.091 L 12.261306,50.045505 L 12.261306,51 L 7.7585661,50.999189 L 3.2558274,50.998377 L 3.2558274,50.044692 z"
             style="opacity:1;fill:#ffffff;fill-opacity:1;fill-rule:evenodd;stroke:#ffffff;stroke-width:0;stroke-linecap:butt;stroke-linejoin:miter;stroke-miterlimit:4;stroke-dasharray:none;stroke-dashoffset:0;stroke-opacity:1" />
        </g>
        <g
           id="g2512"
           transform="matrix(0,1,-1,0,99.996401,-0.4395522)"
           style="fill:#ffffff">
          <path
             id="path2514"
             d="M 88.617798,49.94637 L 88.617798,48.992802 L 93.120537,48.992802 L 97.623277,48.992802 L 97.623277,49.947182 L 97.623277,50.901553 L 93.120537,50.900742 L 88.617798,50.89993 L 88.617798,49.94637 z"
             style="opacity:1;fill:#ffffff;fill-opacity:1;fill-rule:evenodd;stroke:#ffffff;stroke-width:0;stroke-linecap:butt;stroke-linejoin:miter;stroke-miterlimit:4;stroke-dasharray:none;stroke-dashoffset:0;stroke-opacity:1" />
          <path
             id="path2516"
             d="M 3.2558274,50.044692 L 3.2558274,49.091 L 7.7585661,49.091 L 12.261306,49.091 L 12.261306,50.045505 L 12.261306,51 L 7.7585661,50.999189 L 3.2558274,50.998377 L 3.2558274,50.044692 z"
             style="opacity:1;fill:#ffffff;fill-opacity:1;fill-rule:evenodd;stroke:#ffffff;stroke-width:0;stroke-linecap:butt;stroke-linejoin:miter;stroke-miterlimit:4;stroke-dasharray:none;stroke-dashoffset:0;stroke-opacity:1" />
        </g>
      </g>
    </g>
  </g>
</svg>
